# xmcd
#
# Track frame offsets: 
#        150
#        18962
#        36714
#        55322
#        71900
#        92809
#        108809
#        129164
#        156323
#        177086
#        198814
#        221080
#        238768
#
# Disc length: 3458 seconds
#
# Revision: 0
# Processed by: cddbd v1.4PL0 Copyright (c) Steve Scherf et al.
# Submitted via: ExactAudioCopy v0.90b4
#
DISCID=b60d800d
DTITLE=Ilse de Lange - Livin' on Love
DYEAR=2000
DGENRE=Country
TTITLE0=Good Thing
TTITLE1=Naked Heart
TTITLE2=Ride the Wind to Me
TTITLE3=Breathin'
TTITLE4=I Still Cry
TTITLE5=Beyond Gravity
TTITLE6=Livin' on Love
TTITLE7=Peaceful in Mine
TTITLE8=When You Put it Like That
TTITLE9=Always Overcome
TTITLE10=Breathe In, Breathe Out
TTITLE11=Everywhere I Go
TTITLE12=Put it Like That
EXTD=
EXTT0=
EXTT1=
EXTT2=
EXTT3=
EXTT4=
EXTT5=
EXTT6=
EXTT7=
EXTT8=
EXTT9=
EXTT10=
EXTT11=
EXTT12=
PLAYORDER=
